<svg xmlns="http://www.w3.org/2000/svg" width="640" height="380" viewBox="0 0 640 380" font-family="Helvetica, Arial, sans-serif">
<rect width="640" height="380" fill="white"/>
<line x1="60.0" y1="310.0" x2="620.0" y2="310.0" stroke="#d9d9d9" stroke-width="1"/>
<text x="50.0" y="314.0" font-size="11" text-anchor="end" fill="#4d4d4d" font-weight="normal">0.0</text>
<line x1="60.0" y1="271.4" x2="620.0" y2="271.4" stroke="#d9d9d9" stroke-width="1"/>
<text x="50.0" y="275.4" font-size="11" text-anchor="end" fill="#4d4d4d" font-weight="normal">0.1</text>
<line x1="60.0" y1="232.9" x2="620.0" y2="232.9" stroke="#d9d9d9" stroke-width="1"/>
<text x="50.0" y="236.9" font-size="11" text-anchor="end" fill="#4d4d4d" font-weight="normal">0.2</text>
<line x1="60.0" y1="194.3" x2="620.0" y2="194.3" stroke="#d9d9d9" stroke-width="1"/>
<text x="50.0" y="198.3" font-size="11" text-anchor="end" fill="#4d4d4d" font-weight="normal">0.3</text>
<line x1="60.0" y1="155.7" x2="620.0" y2="155.7" stroke="#d9d9d9" stroke-width="1"/>
<text x="50.0" y="159.7" font-size="11" text-anchor="end" fill="#4d4d4d" font-weight="normal">0.4</text>
<line x1="60.0" y1="117.1" x2="620.0" y2="117.1" stroke="#d9d9d9" stroke-width="1"/>
<text x="50.0" y="121.1" font-size="11" text-anchor="end" fill="#4d4d4d" font-weight="normal">0.5</text>
<line x1="60.0" y1="78.6" x2="620.0" y2="78.6" stroke="#d9d9d9" stroke-width="1"/>
<text x="50.0" y="82.6" font-size="11" text-anchor="end" fill="#4d4d4d" font-weight="normal">0.6</text>
<line x1="60.0" y1="40.0" x2="620.0" y2="40.0" stroke="#d9d9d9" stroke-width="1"/>
<text x="50.0" y="44.0" font-size="11" text-anchor="end" fill="#4d4d4d" font-weight="normal">0.7</text>
<line x1="60.0" y1="40.0" x2="60.0" y2="310.0" stroke="#4d4d4d" stroke-width="1.2"/>
<line x1="60.0" y1="310.0" x2="620.0" y2="310.0" stroke="#4d4d4d" stroke-width="1.2"/>
<text x="18.0" y="175.0" font-size="13" text-anchor="middle" fill="#1a1a1a" font-weight="normal" transform="rotate(-90 18 175.0)">Mean gap to best observed (%)</text>
<rect x="65.7" y="59.3" width="14.9" height="250.7" fill="#a9c9e8"/>
<rect x="83.6" y="217.4" width="14.9" height="92.6" fill="#5b93c9"/>
<rect x="101.6" y="232.9" width="14.9" height="77.1" fill="#1f5a96"/>
<text x="91.1" y="326.0" font-size="10.5" text-anchor="middle" fill="#4d4d4d" font-weight="normal">S-none</text>
<rect x="127.9" y="190.4" width="14.9" height="119.6" fill="#a9c9e8"/>
<rect x="145.9" y="259.9" width="14.9" height="50.1" fill="#5b93c9"/>
<rect x="163.8" y="263.7" width="14.9" height="46.3" fill="#1f5a96"/>
<text x="153.3" y="326.0" font-size="10.5" text-anchor="middle" fill="#4d4d4d" font-weight="normal">S-med</text>
<rect x="190.2" y="186.6" width="14.9" height="123.4" fill="#a9c9e8"/>
<rect x="208.1" y="213.6" width="14.9" height="96.4" fill="#5b93c9"/>
<rect x="226.0" y="236.7" width="14.9" height="73.3" fill="#1f5a96"/>
<text x="215.6" y="326.0" font-size="10.5" text-anchor="middle" fill="#4d4d4d" font-weight="normal">S-tight</text>
<rect x="252.4" y="151.9" width="14.9" height="158.1" fill="#a9c9e8"/>
<rect x="270.3" y="213.6" width="14.9" height="96.4" fill="#5b93c9"/>
<rect x="288.2" y="236.7" width="14.9" height="73.3" fill="#1f5a96"/>
<text x="277.8" y="326.0" font-size="10.5" text-anchor="middle" fill="#4d4d4d" font-weight="normal">M-none</text>
<rect x="314.6" y="128.7" width="14.9" height="181.3" fill="#a9c9e8"/>
<rect x="332.5" y="186.6" width="14.9" height="123.4" fill="#5b93c9"/>
<rect x="350.5" y="209.7" width="14.9" height="100.3" fill="#1f5a96"/>
<text x="340.0" y="326.0" font-size="10.5" text-anchor="middle" fill="#4d4d4d" font-weight="normal">M-med</text>
<rect x="376.8" y="202.0" width="14.9" height="108.0" fill="#a9c9e8"/>
<rect x="394.8" y="256.0" width="14.9" height="54.0" fill="#5b93c9"/>
<rect x="412.7" y="263.7" width="14.9" height="46.3" fill="#1f5a96"/>
<text x="402.2" y="326.0" font-size="10.5" text-anchor="middle" fill="#4d4d4d" font-weight="normal">M-tight</text>
<rect x="439.0" y="202.0" width="14.9" height="108.0" fill="#a9c9e8"/>
<rect x="457.0" y="259.9" width="14.9" height="50.1" fill="#5b93c9"/>
<rect x="474.9" y="275.3" width="14.9" height="34.7" fill="#1f5a96"/>
<text x="464.4" y="326.0" font-size="10.5" text-anchor="middle" fill="#4d4d4d" font-weight="normal">L-none</text>
<rect x="501.3" y="244.4" width="14.9" height="65.6" fill="#a9c9e8"/>
<rect x="519.2" y="267.6" width="14.9" height="42.4" fill="#5b93c9"/>
<rect x="537.1" y="275.3" width="14.9" height="34.7" fill="#1f5a96"/>
<text x="526.7" y="326.0" font-size="10.5" text-anchor="middle" fill="#4d4d4d" font-weight="normal">L-med</text>
<rect x="563.5" y="294.6" width="14.9" height="15.4" fill="#a9c9e8"/>
<rect x="581.4" y="302.3" width="14.9" height="7.7" fill="#5b93c9"/>
<rect x="599.4" y="298.4" width="14.9" height="11.6" fill="#1f5a96"/>
<text x="588.9" y="326.0" font-size="10.5" text-anchor="middle" fill="#4d4d4d" font-weight="normal">L-tight</text>
<rect x="80" y="346" width="14" height="14" fill="#a9c9e8"/>
<text x="100.0" y="357.0" font-size="11.5" text-anchor="start" fill="#1a1a1a" font-weight="normal">generic (7 ops)</text>
<rect x="280" y="346" width="14" height="14" fill="#5b93c9"/>
<text x="300.0" y="357.0" font-size="11.5" text-anchor="start" fill="#1a1a1a" font-weight="normal">critical (+g1,g2)</text>
<rect x="480" y="346" width="14" height="14" fill="#1f5a96"/>
<text x="500.0" y="357.0" font-size="11.5" text-anchor="start" fill="#1a1a1a" font-weight="normal">full (+g3,g4)</text>
<text x="60.0" y="24.0" font-size="12" text-anchor="start" fill="#555" font-weight="bold">Guided operators g1, g2 lower the gap in every cell; g3, g4 add little</text>
</svg>
