<svg xmlns="http://www.w3.org/2000/svg" width="560" height="400" viewBox="0 0 560 400" font-family="Helvetica, Arial, sans-serif">
<rect width="560" height="400" fill="white"/>
<line x1="70.0" y1="340.0" x2="530.0" y2="340.0" stroke="#d9d9d9" stroke-width="1"/>
<text x="60.0" y="344.0" font-size="11" text-anchor="end" fill="#4d4d4d" font-weight="normal">0.00</text>
<line x1="70.0" y1="340.0" x2="70.0" y2="345.0" stroke="#4d4d4d" stroke-width="1"/>
<text x="70.0" y="360.0" font-size="11" text-anchor="middle" fill="#4d4d4d" font-weight="normal">0.00</text>
<line x1="70.0" y1="265.0" x2="530.0" y2="265.0" stroke="#d9d9d9" stroke-width="1"/>
<text x="60.0" y="269.0" font-size="11" text-anchor="end" fill="#4d4d4d" font-weight="normal">0.25</text>
<line x1="185.0" y1="340.0" x2="185.0" y2="345.0" stroke="#4d4d4d" stroke-width="1"/>
<text x="185.0" y="360.0" font-size="11" text-anchor="middle" fill="#4d4d4d" font-weight="normal">0.25</text>
<line x1="70.0" y1="190.0" x2="530.0" y2="190.0" stroke="#d9d9d9" stroke-width="1"/>
<text x="60.0" y="194.0" font-size="11" text-anchor="end" fill="#4d4d4d" font-weight="normal">0.50</text>
<line x1="300.0" y1="340.0" x2="300.0" y2="345.0" stroke="#4d4d4d" stroke-width="1"/>
<text x="300.0" y="360.0" font-size="11" text-anchor="middle" fill="#4d4d4d" font-weight="normal">0.50</text>
<line x1="70.0" y1="115.0" x2="530.0" y2="115.0" stroke="#d9d9d9" stroke-width="1"/>
<text x="60.0" y="119.0" font-size="11" text-anchor="end" fill="#4d4d4d" font-weight="normal">0.75</text>
<line x1="415.0" y1="340.0" x2="415.0" y2="345.0" stroke="#4d4d4d" stroke-width="1"/>
<text x="415.0" y="360.0" font-size="11" text-anchor="middle" fill="#4d4d4d" font-weight="normal">0.75</text>
<line x1="70.0" y1="40.0" x2="530.0" y2="40.0" stroke="#d9d9d9" stroke-width="1"/>
<text x="60.0" y="44.0" font-size="11" text-anchor="end" fill="#4d4d4d" font-weight="normal">1.00</text>
<line x1="530.0" y1="340.0" x2="530.0" y2="345.0" stroke="#4d4d4d" stroke-width="1"/>
<text x="530.0" y="360.0" font-size="11" text-anchor="middle" fill="#4d4d4d" font-weight="normal">1.00</text>
<line x1="70.0" y1="40.0" x2="70.0" y2="340.0" stroke="#4d4d4d" stroke-width="1.2"/>
<line x1="70.0" y1="340.0" x2="530.0" y2="340.0" stroke="#4d4d4d" stroke-width="1.2"/>
<text x="300.0" y="390.0" font-size="13" text-anchor="middle" fill="#1a1a1a" font-weight="normal">Makespan (normalised: 0 = min, 1 = max)</text>
<text x="18.0" y="190.0" font-size="13" text-anchor="middle" fill="#1a1a1a" font-weight="normal" transform="rotate(-90 18 190.0)">Total tardiness (normalised)</text>
<polyline points="161.2,43.6 203.2,284.2 195.5,303.5 265.8,310.3 333.3,320.1 383.7,330.9 416.3,333.0" fill="none" stroke="#2b6cb0" stroke-width="2"/>
<circle cx="161.2" cy="43.6" r="3.8" fill="#2b6cb0"/>
<text x="169.2" y="36.6" font-size="10.5" text-anchor="start" fill="#333" font-weight="normal">λ=0</text>
<circle cx="203.2" cy="284.2" r="3.8" fill="#2b6cb0"/>
<text x="211.2" y="277.2" font-size="10.5" text-anchor="start" fill="#333" font-weight="normal">λ=0.25</text>
<circle cx="195.5" cy="303.5" r="3.8" fill="#2b6cb0"/>
<text x="203.5" y="296.5" font-size="10.5" text-anchor="start" fill="#333" font-weight="normal">λ=0.5</text>
<circle cx="265.8" cy="310.3" r="5.5" fill="#2e9a86"/>
<text x="273.8" y="303.3" font-size="10.5" text-anchor="start" fill="#1a1a1a" font-weight="bold">λ=1</text>
<circle cx="333.3" cy="320.1" r="3.8" fill="#2b6cb0"/>
<text x="341.3" y="313.1" font-size="10.5" text-anchor="start" fill="#333" font-weight="normal">λ=2</text>
<circle cx="383.7" cy="330.9" r="3.8" fill="#2b6cb0"/>
<text x="391.7" y="323.9" font-size="10.5" text-anchor="start" fill="#333" font-weight="normal">λ=4</text>
<circle cx="416.3" cy="333.0" r="3.8" fill="#2b6cb0"/>
<text x="424.3" y="326.0" font-size="10.5" text-anchor="start" fill="#333" font-weight="normal">λ=8</text>
<text x="70.0" y="24.0" font-size="11.5" text-anchor="start" fill="#555" font-weight="bold">λ=1 keeps tardiness near-minimal at a moderate makespan cost</text>
</svg>
