<svg xmlns="http://www.w3.org/2000/svg" width="560" height="400" viewBox="0 0 560 400" font-family="Helvetica, Arial, sans-serif">
<rect width="560" height="400" fill="white"/>
<line x1="70.0" y1="340.0" x2="530.0" y2="340.0" stroke="#d9d9d9" stroke-width="1"/>
<text x="60.0" y="344.0" font-size="11" text-anchor="end" fill="#4d4d4d" font-weight="normal">0.00</text>
<line x1="70.0" y1="340.0" x2="70.0" y2="345.0" stroke="#4d4d4d" stroke-width="1"/>
<text x="70.0" y="360.0" font-size="11" text-anchor="middle" fill="#4d4d4d" font-weight="normal">0.00</text>
<line x1="70.0" y1="265.0" x2="530.0" y2="265.0" stroke="#d9d9d9" stroke-width="1"/>
<text x="60.0" y="269.0" font-size="11" text-anchor="end" fill="#4d4d4d" font-weight="normal">0.25</text>
<line x1="185.0" y1="340.0" x2="185.0" y2="345.0" stroke="#4d4d4d" stroke-width="1"/>
<text x="185.0" y="360.0" font-size="11" text-anchor="middle" fill="#4d4d4d" font-weight="normal">0.25</text>
<line x1="70.0" y1="190.0" x2="530.0" y2="190.0" stroke="#d9d9d9" stroke-width="1"/>
<text x="60.0" y="194.0" font-size="11" text-anchor="end" fill="#4d4d4d" font-weight="normal">0.50</text>
<line x1="300.0" y1="340.0" x2="300.0" y2="345.0" stroke="#4d4d4d" stroke-width="1"/>
<text x="300.0" y="360.0" font-size="11" text-anchor="middle" fill="#4d4d4d" font-weight="normal">0.50</text>
<line x1="70.0" y1="115.0" x2="530.0" y2="115.0" stroke="#d9d9d9" stroke-width="1"/>
<text x="60.0" y="119.0" font-size="11" text-anchor="end" fill="#4d4d4d" font-weight="normal">0.75</text>
<line x1="415.0" y1="340.0" x2="415.0" y2="345.0" stroke="#4d4d4d" stroke-width="1"/>
<text x="415.0" y="360.0" font-size="11" text-anchor="middle" fill="#4d4d4d" font-weight="normal">0.75</text>
<line x1="70.0" y1="40.0" x2="530.0" y2="40.0" stroke="#d9d9d9" stroke-width="1"/>
<text x="60.0" y="44.0" font-size="11" text-anchor="end" fill="#4d4d4d" font-weight="normal">1.00</text>
<line x1="530.0" y1="340.0" x2="530.0" y2="345.0" stroke="#4d4d4d" stroke-width="1"/>
<text x="530.0" y="360.0" font-size="11" text-anchor="middle" fill="#4d4d4d" font-weight="normal">1.00</text>
<line x1="70.0" y1="40.0" x2="70.0" y2="340.0" stroke="#4d4d4d" stroke-width="1.2"/>
<line x1="70.0" y1="340.0" x2="530.0" y2="340.0" stroke="#4d4d4d" stroke-width="1.2"/>
<text x="300.0" y="390.0" font-size="13" text-anchor="middle" fill="#1a1a1a" font-weight="normal">Makespan (normalised: 0 = min, 1 = max)</text>
<text x="18.0" y="190.0" font-size="13" text-anchor="middle" fill="#1a1a1a" font-weight="normal" transform="rotate(-90 18 190.0)">Total tardiness (normalised)</text>
<polyline points="160.3,46.6 207.3,282.4 198.8,302.5 260.1,307.5 337.3,320.6 377.3,329.6 425.5,332.3" fill="none" stroke="#2b6cb0" stroke-width="2"/>
<circle cx="160.3" cy="46.6" r="3.8" fill="#2b6cb0"/>
<text x="168.3" y="39.6" font-size="10.5" text-anchor="start" fill="#333" font-weight="normal">λ=0</text>
<circle cx="207.3" cy="282.4" r="3.8" fill="#2b6cb0"/>
<text x="215.3" y="275.4" font-size="10.5" text-anchor="start" fill="#333" font-weight="normal">λ=0.25</text>
<circle cx="198.8" cy="302.5" r="3.8" fill="#2b6cb0"/>
<text x="206.8" y="295.5" font-size="10.5" text-anchor="start" fill="#333" font-weight="normal">λ=0.5</text>
<circle cx="260.1" cy="307.5" r="5.5" fill="#dd6b20"/>
<text x="268.1" y="300.5" font-size="10.5" text-anchor="start" fill="#dd6b20" font-weight="bold">λ=1</text>
<circle cx="337.3" cy="320.6" r="3.8" fill="#2b6cb0"/>
<text x="345.3" y="313.6" font-size="10.5" text-anchor="start" fill="#333" font-weight="normal">λ=2</text>
<circle cx="377.3" cy="329.6" r="3.8" fill="#2b6cb0"/>
<text x="385.3" y="322.6" font-size="10.5" text-anchor="start" fill="#333" font-weight="normal">λ=4</text>
<circle cx="425.5" cy="332.3" r="3.8" fill="#2b6cb0"/>
<text x="433.5" y="325.3" font-size="10.5" text-anchor="start" fill="#333" font-weight="normal">λ=8</text>
<text x="70.0" y="24.0" font-size="11.5" text-anchor="start" fill="#555" font-weight="bold">λ=1 keeps tardiness near-minimal at a moderate makespan cost</text>
</svg>
