<svg xmlns="http://www.w3.org/2000/svg" width="560" height="400" viewBox="0 0 560 400" font-family="Helvetica, Arial, sans-serif">
<rect width="560" height="400" fill="white"/>
<line x1="70.0" y1="340.0" x2="530.0" y2="340.0" stroke="#d9d9d9" stroke-width="1"/>
<text x="60.0" y="344.0" font-size="11" text-anchor="end" fill="#4d4d4d" font-weight="normal">0.00</text>
<line x1="70.0" y1="340.0" x2="70.0" y2="345.0" stroke="#4d4d4d" stroke-width="1"/>
<text x="70.0" y="360.0" font-size="11" text-anchor="middle" fill="#4d4d4d" font-weight="normal">0.00</text>
<line x1="70.0" y1="265.0" x2="530.0" y2="265.0" stroke="#d9d9d9" stroke-width="1"/>
<text x="60.0" y="269.0" font-size="11" text-anchor="end" fill="#4d4d4d" font-weight="normal">0.25</text>
<line x1="185.0" y1="340.0" x2="185.0" y2="345.0" stroke="#4d4d4d" stroke-width="1"/>
<text x="185.0" y="360.0" font-size="11" text-anchor="middle" fill="#4d4d4d" font-weight="normal">0.25</text>
<line x1="70.0" y1="190.0" x2="530.0" y2="190.0" stroke="#d9d9d9" stroke-width="1"/>
<text x="60.0" y="194.0" font-size="11" text-anchor="end" fill="#4d4d4d" font-weight="normal">0.50</text>
<line x1="300.0" y1="340.0" x2="300.0" y2="345.0" stroke="#4d4d4d" stroke-width="1"/>
<text x="300.0" y="360.0" font-size="11" text-anchor="middle" fill="#4d4d4d" font-weight="normal">0.50</text>
<line x1="70.0" y1="115.0" x2="530.0" y2="115.0" stroke="#d9d9d9" stroke-width="1"/>
<text x="60.0" y="119.0" font-size="11" text-anchor="end" fill="#4d4d4d" font-weight="normal">0.75</text>
<line x1="415.0" y1="340.0" x2="415.0" y2="345.0" stroke="#4d4d4d" stroke-width="1"/>
<text x="415.0" y="360.0" font-size="11" text-anchor="middle" fill="#4d4d4d" font-weight="normal">0.75</text>
<line x1="70.0" y1="40.0" x2="530.0" y2="40.0" stroke="#d9d9d9" stroke-width="1"/>
<text x="60.0" y="44.0" font-size="11" text-anchor="end" fill="#4d4d4d" font-weight="normal">1.00</text>
<line x1="530.0" y1="340.0" x2="530.0" y2="345.0" stroke="#4d4d4d" stroke-width="1"/>
<text x="530.0" y="360.0" font-size="11" text-anchor="middle" fill="#4d4d4d" font-weight="normal">1.00</text>
<line x1="70.0" y1="40.0" x2="70.0" y2="340.0" stroke="#4d4d4d" stroke-width="1.2"/>
<line x1="70.0" y1="340.0" x2="530.0" y2="340.0" stroke="#4d4d4d" stroke-width="1.2"/>
<text x="300.0" y="390.0" font-size="13" text-anchor="middle" fill="#1a1a1a" font-weight="normal">Makespan (normalised: 0 = min, 1 = max)</text>
<text x="18.0" y="190.0" font-size="13" text-anchor="middle" fill="#1a1a1a" font-weight="normal" transform="rotate(-90 18 190.0)">Total tardiness (normalised)</text>
<polyline points="128.2,43.5 203.7,266.2 209.9,286.1 258.7,298.6 296.5,314.5 351.7,328.1 408.1,328.8" fill="none" stroke="#2b6cb0" stroke-width="2"/>
<circle cx="128.2" cy="43.5" r="3.8" fill="#2b6cb0"/>
<text x="136.2" y="36.5" font-size="10.5" text-anchor="start" fill="#333" font-weight="normal">λ=0</text>
<circle cx="203.7" cy="266.2" r="3.8" fill="#2b6cb0"/>
<text x="211.7" y="259.2" font-size="10.5" text-anchor="start" fill="#333" font-weight="normal">λ=0.25</text>
<circle cx="209.9" cy="286.1" r="3.8" fill="#2b6cb0"/>
<text x="217.9" y="279.1" font-size="10.5" text-anchor="start" fill="#333" font-weight="normal">λ=0.5</text>
<circle cx="258.7" cy="298.6" r="5.5" fill="#dd6b20"/>
<text x="266.7" y="291.6" font-size="10.5" text-anchor="start" fill="#dd6b20" font-weight="bold">λ=1</text>
<circle cx="296.5" cy="314.5" r="3.8" fill="#2b6cb0"/>
<text x="304.5" y="307.5" font-size="10.5" text-anchor="start" fill="#333" font-weight="normal">λ=2</text>
<circle cx="351.7" cy="328.1" r="3.8" fill="#2b6cb0"/>
<text x="359.7" y="321.1" font-size="10.5" text-anchor="start" fill="#333" font-weight="normal">λ=4</text>
<circle cx="408.1" cy="328.8" r="3.8" fill="#2b6cb0"/>
<text x="416.1" y="321.8" font-size="10.5" text-anchor="start" fill="#333" font-weight="normal">λ=8</text>
<text x="70.0" y="24.0" font-size="11.5" text-anchor="start" fill="#555" font-weight="bold">Increasing λ trades makespan for tardiness; λ=1 keeps tardiness near-minimal at moderate makespan cost</text>
</svg>
